<?xml version="1.0" encoding="iso-8859-1"?>
<!-- Generator: Adobe Illustrator 19.0.0, SVG Export Plug-In . SVG Version: 6.00 Build 0)  -->
<svg version="1.1" id="Capa_1" xmlns="http://www.w3.org/2000/svg" xmlns:xlink="http://www.w3.org/1999/xlink" x="0px" y="0px"
	 viewBox="0 0 508.693 508.693" style="fill:#393937;" xml:space="preserve">
<g>
	<g>
		<g>
			<path d="M427.328,175.493l31.472-5.856c-2.119-11.372-5.186-22.547-9.168-33.408l-30.032,11.04
				C422.965,156.442,425.55,165.884,427.328,175.493z"/>
			<path d="M407.248,120.709l27.792-15.84c-5.719-10.045-12.27-19.593-19.584-28.544l-24.784,20.256
				C396.86,104.147,402.405,112.218,407.248,120.709z"/>
			<path d="M430.304,204.693v3.2c0.134,76.186-48.852,143.776-121.296,167.36l-5.264,1.712l-49.44,74.128l-49.44-74.096
				l-5.264-1.712C107.255,344.941,56.994,245.482,87.337,153.138C117.681,60.793,217.14,10.532,309.484,40.876
				c22.387,7.356,43.069,19.133,60.82,34.633l21.104-24C304.979-24.164,173.569-15.443,97.897,70.986
				s-66.952,217.839,19.478,293.511c19.647,17.202,42.358,30.55,66.945,39.348l69.984,104.848l69.984-104.88
				c82.855-29.487,138.146-107.974,138.016-195.92v-3.856L430.304,204.693z"/>
			<path d="M142.304,287.893h224v-160h-224V287.893z M325.728,159.893l-71.424,30.592l-71.424-30.592H325.728z M174.304,191.029
				l80,34.272l80-34.272v64.864h-160V191.029z"/>
		</g>
	</g>
</g>
<g>
</g>
<g>
</g>
<g>
</g>
<g>
</g>
<g>
</g>
<g>
</g>
<g>
</g>
<g>
</g>
<g>
</g>
<g>
</g>
<g>
</g>
<g>
</g>
<g>
</g>
<g>
</g>
<g>
</g>
</svg>
