<?xml version="1.0" encoding="utf-8"?>
<!-- Generator: Adobe Illustrator 22.1.0, SVG Export Plug-In . SVG Version: 6.00 Build 0)  -->
<svg version="1.1" id="Layer_1" xmlns="http://www.w3.org/2000/svg" xmlns:xlink="http://www.w3.org/1999/xlink" x="0px" y="0px"
	 viewBox="0 0 60 76" style="enable-background:new 0 0 60 76;" xml:space="preserve">
<style type="text/css">
	.st0{fill:#5D7031;}
	.st1{fill:none;stroke:#5D7031;stroke-width:2.5;stroke-miterlimit:10;}
</style>
<path class="st0" d="M30.4,17h-2.2v42.8c0,0-5.9,8.2-9,9c-3.1,0.8-2.7,0.7-6.2,0c-2.4-1.3-6.3-6.3-7.3-8.5c-1-2.2-0.8-12.7-0.8-12.7
	l9.4,12.2l1-1C4.8,45.5,1.9,34.7,1.9,34.7l0,26.7c2.9,5,7.6,10.6,10.5,11.2s5.6,0.6,8.4,0c2.3-1,9.6-9.3,9.6-9.3H30
	c0,0,7.2,8.3,9.6,9.3c2.8,0.6,5.5,0.6,8.4,0s7.6-6.2,10.5-11.2V34.7C55,43.1,53.4,48.3,45.1,59l1,1l9.4-12.2c0,0,0.2,10.5-0.8,12.7
	c-1,2.2-4.9,7.2-7.3,8.5c-3.5,0.7-3.1,0.8-6.2,0c-3.1-0.8-9-9-9-9V17H30H30.4z"/>
<circle class="st1" cx="30" cy="11.1" r="5.9"/>
</svg>
