<?xml version="1.0" encoding="utf-8"?>
<!-- Generator: Adobe Illustrator 23.0.3, SVG Export Plug-In . SVG Version: 6.00 Build 0)  -->
<svg version="1.1" id="Layer_1" xmlns="http://www.w3.org/2000/svg" xmlns:xlink="http://www.w3.org/1999/xlink" x="0px" y="0px"
	 viewBox="0 0 103.7 71.6" style="enable-background:new 0 0 103.7 71.6;" xml:space="preserve">
<style type="text/css">
	.st0{fill:#393937;}
</style>
<g>
	<g>
		<g>
			<path class="st0" d="M103.4,36.8C94.8,22.6,80.6,13.9,64,12.3C55.6,2.6,29.4,0.1,28.3,0c-0.7-0.1-1.5,0.2-1.9,0.8
				c-0.5,0.5-0.6,1.3-0.3,1.9c2.6,6.1,5.2,13.1,5.9,16c-4.8,2-8.9,4.1-11.6,5.9C14.6,16,2.7,15.9,2.2,15.9c-1.2,0-2.2,0.9-2.2,2
				c0,11.5,4.4,17.3,7.3,19.9C4.4,40.4,0,46.2,0,57.7c0,1.1,1,2,2.2,2c0.5,0,12.4-0.1,18.2-8.7c3.6,2.4,9.7,5.3,16.4,7.8
				c-1.5,2.2-2.2,5.7-2.2,10.8c0,1.1,1,2,2.2,2c0.6,0,15.3-0.1,22.7-8c18.6-0.3,34.6-9.3,44-24.8C103.8,38.2,103.8,37.4,103.4,36.8z
				 M60.1,23c0,0.1-4,5.7-4,14.8c0,5,1.2,8.9,2.1,11.2c0.4,1-0.1,2.2-1.3,2.6c-0.2,0.1-0.5,0.1-0.8,0.1c-0.9,0-1.7-0.5-2-1.3
				c-1.1-2.7-2.4-7.1-2.4-12.6c0-10.4,4.5-16.8,4.7-17c0.7-0.9,2-1.2,3-0.6C60.5,20.8,60.8,22.1,60.1,23z M68.2,55.4
				c-0.4,0.2-0.8,0.3-1.2,0.3c-0.7,0-1.4-0.3-1.8-0.9c-0.2-0.3-4.7-6.6-4.7-17s4.5-16.8,4.7-17c0.7-0.9,2-1.2,3-0.6
				c1,0.6,1.3,1.8,0.6,2.8c0,0.1-4,5.7-4,14.8c0,9.2,3.9,14.8,4,14.8C69.4,53.5,69.2,54.7,68.2,55.4z M77.8,35.8
				c-2.4,0-4.3-1.8-4.3-4s1.9-4,4.3-4s4.3,1.8,4.3,4S80.2,35.8,77.8,35.8z"/>
		</g>
	</g>
	<g>
	</g>
	<g>
	</g>
	<g>
	</g>
	<g>
	</g>
	<g>
	</g>
	<g>
	</g>
	<g>
	</g>
	<g>
	</g>
	<g>
	</g>
	<g>
	</g>
	<g>
	</g>
	<g>
	</g>
	<g>
	</g>
	<g>
	</g>
	<g>
	</g>
</g>
</svg>
