<?xml version="1.0" encoding="utf-8"?>
<!-- Generator: Adobe Illustrator 23.0.3, SVG Export Plug-In . SVG Version: 6.00 Build 0)  -->
<svg version="1.1" id="Capa_1" xmlns="http://www.w3.org/2000/svg" xmlns:xlink="http://www.w3.org/1999/xlink" x="0px" y="0px"
	 viewBox="0 0 84.9 61.4" style="enable-background:new 0 0 84.9 61.4;" xml:space="preserve">
<style type="text/css">
	.st0{fill:#393937;}
</style>
<g>
	<path class="st0" d="M84.9,7.6v25.7c0,0-5.5,1.1-6.6,1.2c-1.1,0.1-4.7,1.3-7.3-1.2C67.1,29.6,53,15.5,53,15.5s-2.4-2.4-6.3-0.3
		c-3.6,1.9-8.9,4.7-11.1,5.7c-4.2,2.2-7.7-1.3-7.7-4c0-2.1,1.3-3.5,3.2-4.6C36.1,9.3,46.7,3.3,51.2,1c2.7-1.4,4.6-1.6,8.3,1.6
		c4.6,3.8,8.6,7.3,8.6,7.3s1.3,1.1,3.4,0.7C76.8,9.4,84.9,7.6,84.9,7.6z M28.8,51.2c0.7-1.8,0.5-3.7-0.9-5.1
		c-1.2-1.2-2.9-1.5-4.5-1.1c0.5-1.6,0.2-3.4-1-4.6c-1.2-1.2-2.9-1.5-4.5-1.1c0.5-1.6,0.2-3.3-1-4.6c-1.9-1.9-5.1-1.8-7.2,0.2
		c-2.1,2-3.4,5.7-1.6,7.8c1.9,2.1,4,0.8,5.6,0.5c-0.5,1.6-1.8,3.1-0.1,5.3c1.7,2.1,4,0.8,5.6,0.5c-0.5,1.6-1.8,3.3-0.1,5.2
		c1.6,2,4.3,0.9,6.1,0.4c-0.7,1.7-2.1,3.6-0.3,5.7c1.9,2.1,6.2,1.1,8.3-0.9c2.1-2,2.3-5.2,0.5-7.1C32.5,50.9,30.6,50.6,28.8,51.2z
		 M67.2,37.8C52,22.6,59.2,29.7,51,21.5c0,0-2.5-2.5-5.7-1c-2.3,1-5.2,2.4-7.4,3.4c-2.4,1.3-4.2,1.7-5,1.7c-4.7,0-8.5-3.8-8.5-8.5
		c0-3,1.6-5.7,4-7.2c3.4-2.3,11.2-6.5,11.2-6.5s-2.4-3-7.6-3c-5.2,0-16.1,7.1-16.1,7.1s-3.1,2-7.5,0.2L0,4.7v29.4
		c0,0,2.4,0.7,4.6,1.6C5.1,34.3,5.9,33.1,7,32c3.6-3.4,9.6-3.5,12.8-0.1c1,1,1.7,2.2,2,3.6c1.3,0.4,2.5,1.1,3.5,2.1
		c1,1,1.7,2.2,2,3.6c1.3,0.4,2.5,1.1,3.5,2.1c1.1,1.1,1.8,2.5,2.1,3.9c1.4,0.4,2.6,1.1,3.6,2.2c2,2,2.7,4.8,2.2,7.4c0,0,0,0,0,0
		c0,0,1.2,1.4,2,2.1c1.5,1.5,3.8,1.5,5.3,0c1.4-1.5,1.5-3.8,0-5.3c-0.1-0.1-5.2-5.5-4.8-5.9c0.4-0.4,7,6.5,7.1,6.6
		c1.4,1.5,3.8,1.5,5.3,0c1.5-1.5,1.4-3.8,0-5.3c-0.1-0.1-0.4-0.4-0.5-0.5c0,0-6.6-5.8-6.1-6.3c0.5-0.5,8.6,7.1,8.7,7.1
		c1.5,1.3,3.7,1.3,5.1-0.1c1.4-1.4,1.4-3.5,0.2-5c0-0.1-6.2-6.5-5.7-7c0.5-0.5,6.6,5.8,6.6,5.8c1.4,1.4,3.8,1.4,5.3,0
		C68.8,41.7,68.8,39.3,67.2,37.8C67.3,37.8,67.3,37.8,67.2,37.8z"/>
</g>
</svg>
