<?xml version="1.0" encoding="utf-8"?>
<!-- Generator: Adobe Illustrator 23.0.2, SVG Export Plug-In . SVG Version: 6.00 Build 0)  -->
<svg version="1.1" id="Capa_1" xmlns="http://www.w3.org/2000/svg" xmlns:xlink="http://www.w3.org/1999/xlink" x="0px" y="0px"
	 viewBox="0 0 280 260" style="enable-background:new 0 0 280 260;" xml:space="preserve">
<style type="text/css">
	.st0{fill:#5D7031;}
	#Capa_1.expanded .st0
	{
	fill: #fff!important:
	}
</style>
<path class="st0" d="M182,61.1H82c-6.6,0-12,5.4-12,12s5.4,12,12,12h100c6.6,0,12-5.4,12-12S188.6,61.1,182,61.1z"/>
<path class="st0" d="M182,115.1H82c-6.6,0-12,5.4-12,12c0,6.6,5.4,12,12,12h100c6.6,0,12-5.4,12-12C194,120.5,188.6,115.1,182,115.1
	z"/>
<path class="st0" d="M182,169.1H82c-6.6,0-12,5.4-12,12s5.4,12,12,12h100c6.6,0,12-5.4,12-12S188.6,169.1,182,169.1z"/>
</svg>
