<?xml version="1.0" encoding="utf-8"?>
<!-- Generator: Adobe Illustrator 23.0.3, SVG Export Plug-In . SVG Version: 6.00 Build 0)  -->
<svg version="1.1" id="Layer_1" xmlns="http://www.w3.org/2000/svg" xmlns:xlink="http://www.w3.org/1999/xlink" x="0px" y="0px"
	 viewBox="0 0 79.8 95.5" style="enable-background:new 0 0 79.8 95.5;" xml:space="preserve">
<style type="text/css">
	.st0{fill:#393937;}
</style>
<g>
	<g>
		<path class="st0" d="M65.7,33.1c7.7,0,14-7.2,14-16.1s-6.3-16.1-14-16.1s-14,7.2-14,16.1S58,33.1,65.7,33.1L65.7,33.1z"/>
		<path class="st0" d="M51.7,53.1v40.1c0,1.3,0.9,2.4,2.1,2.4h22.5c1.2,0,2.1-1.1,2.1-2.4V53.1c0-8.4-6-15.3-13.3-15.3l0,0
			C57.7,37.8,51.7,44.6,51.7,53.1z"/>
		<path class="st0" d="M39.7,12.1L3,0.1C2.8,0,2.6,0,2.3,0c-0.5,0-1,0.2-1.4,0.5C0.3,1.1,0,1.8,0,2.7V34c0,0.9,0.3,1.6,0.9,2.1
			c0.6,0.5,1.3,0.7,2.1,0.4l36.7-12c1-0.3,1.7-1.4,1.7-2.6v-7.3C41.4,13.5,40.7,12.5,39.7,12.1z"/>
		<path class="st0" d="M32,35.4l-9.4,3.4v-3.7l-5.1,1.7v6c0,0.9,0.4,1.8,1,2.3c0.4,0.4,1,0.6,1.5,0.6c0.3,0,0.5,0,0.8-0.1l14.4-5.3
			c1.1-0.4,1.8-1.5,1.8-2.8v-7.1L32,32.1C32,32.1,32,35.4,32,35.4z"/>
	</g>
</g>
</svg>
