<?xml version="1.0" encoding="utf-8"?>
<!-- Generator: Adobe Illustrator 23.0.3, SVG Export Plug-In . SVG Version: 6.00 Build 0)  -->
<svg version="1.1" id="Capa_1" xmlns="http://www.w3.org/2000/svg" xmlns:xlink="http://www.w3.org/1999/xlink" x="0px" y="0px"
	 viewBox="0 0 159.4 157" style="enable-background:new 0 0 159.4 157;" xml:space="preserve">
<g>
	<g id="Layer_5_88_">
		<g>
			<path d="M91.9,124.4c0-20.7,16.8-37.6,37.6-37.6c4.4,0,7.2,0.5,10.2,1.4c2,0.8,2.8-0.8,3-1.6c1.4-5.1,2.1-10.2,2.1-15.4
				c0-0.3-0.2-44.7-0.2-45.2c0-4.4-2.5-4.4-3.6-4.4c-8,0-16.2,0-24.8-2.4C98.2,14,82.3,0,76.2,0c-5.9,0-17.7,14-35.5,19.2
				c-10.1,2.9-19.7,2.4-28.8,1.9c-1.1,0-2.8-0.3-3.3,3.4c-0.1,0.9-0.8,46.2-0.8,46.7c0,44.2,54.7,85.8,68.4,85.8
				c4.4,0,11.4-3.5,20.9-10.6c1.3-1.1,0.6-1.8,0.2-2.4C93.9,138.3,91.9,131.6,91.9,124.4z"/>
			<path d="M129.7,143.5c-1.3,1.4-3.5,1.6-5,0.5l-23.8-17.6c-1.5-1.1-1.8-3.2-0.7-4.7l3.1-4.1c1.1-1.5,3.3-1.8,4.8-0.7l15.3,11.2
				c1.5,1.1,3.8,0.9,5-0.5l21.5-22.5c1.3-1.4,3.4-1.4,4.8-0.2l3.7,3.5c1.4,1.3,1.4,3.4,0.2,4.8L129.7,143.5z"/>
		</g>
	</g>
</g>
</svg>
