<?xml version="1.0" encoding="utf-8"?>
<!-- Generator: Adobe Illustrator 23.0.3, SVG Export Plug-In . SVG Version: 6.00 Build 0)  -->
<svg version="1.1" id="Layer_1" xmlns="http://www.w3.org/2000/svg" xmlns:xlink="http://www.w3.org/1999/xlink" x="0px" y="0px"
	 viewBox="0 0 80.8 83.7" style="enable-background:new 0 0 80.8 83.7;" xml:space="preserve">
<style type="text/css">
	.st0{fill:#393937;}
</style>
<g>
	<g id="Layer_5_88_">
		<g>
			<path class="st0" d="M44.9,66.3c0-11.1,9-20,20-20c2.3,0,3.8,0.3,5.4,0.7c1.1,0.5,1.5-0.4,1.6-0.9c0.7-2.7,1.1-5.5,1.1-8.2
				c0-0.2-0.1-23.8-0.1-24.1c0-2.3-1.3-2.3-1.9-2.3c-4.3,0-8.6,0-13.2-1.3C48.2,7.5,39.7,0,36.5,0c-3.1,0-9.4,7.5-19,10.2
				c-5.4,1.6-10.5,1.3-15.4,1c-0.6,0-1.5-0.2-1.8,1.8C0.4,13.5,0,37.7,0,38c0,23.6,29.2,45.8,36.5,45.8c2.3,0,6.1-1.9,11.2-5.6
				c0.7-0.6,0.3-1,0.1-1.3C45.9,73.8,44.9,70.2,44.9,66.3z"/>
			<path class="st0" d="M65,76.6c-0.7,0.7-1.9,0.8-2.7,0.3l-12.7-9.4c-0.8-0.6-1-1.7-0.4-2.5l1.6-2.2c0.6-0.8,1.7-1,2.5-0.4l8.1,6
				c0.8,0.6,2,0.5,2.7-0.3l11.5-12c0.7-0.7,1.8-0.8,2.5-0.1l2,1.8c0.7,0.7,0.8,1.8,0.1,2.6L65,76.6z"/>
		</g>
	</g>
</g>
</svg>
