<?xml version="1.0" encoding="utf-8"?>
<!-- Generator: Adobe Illustrator 23.0.2, SVG Export Plug-In . SVG Version: 6.00 Build 0)  -->
<svg version="1.1" id="logo" xmlns="http://www.w3.org/2000/svg" xmlns:xlink="http://www.w3.org/1999/xlink" x="0px" y="0px"
	 viewBox="0 0 230.5 230.5" style="enable-background:new 0 0 230.5 230.5;" xml:space="preserve">
<style type="text/css">
	.st0{fill:#FFFFFF;}
	.st1{fill:#FFFFFF;stroke:#9ABD4B;stroke-width:4.4111;stroke-miterlimit:10;}
	.st2{fill:#5D7031;}
	.st3{fill:#FFFFFF;stroke:#FFFFFF;stroke-width:6;stroke-linejoin:round;stroke-miterlimit:10;}
	.st4{fill:#666565;}
	.st5{fill:none;stroke:#9ABD4B;stroke-width:4.4111;stroke-miterlimit:10;}
	.st6{fill:#666665;}
	.st7{fill:#D8AE58;}
	.st8{fill:#FFFFFF;stroke:#FFFFFF;stroke-width:6;stroke-miterlimit:10;}
	.st9{fill:none;}
	.st10{fill:none;stroke:#666665;stroke-width:2;stroke-linecap:round;stroke-linejoin:round;stroke-miterlimit:10;}
	.st11{fill:none;stroke:#666665;stroke-width:2;stroke-miterlimit:10;}
	.st12{fill:none;stroke:#666665;stroke-width:2.1;stroke-miterlimit:10;}
	.st13{fill:none;stroke:#D42027;stroke-width:2;stroke-linejoin:round;stroke-miterlimit:10;}
	.st14{fill:none;stroke:#D42027;stroke-linejoin:round;stroke-miterlimit:10;}
	.st15{fill:none;stroke:#D42027;stroke-width:2;stroke-linecap:round;stroke-linejoin:round;stroke-miterlimit:10;}
	.st16{fill:none;stroke:#D42027;stroke-miterlimit:10;}
</style>
<circle class="st0" cx="115.3" cy="115.3" r="115.3"/>
<g id="XMLID_257_">
	<circle id="XMLID_23_" class="st1" cx="118.7" cy="105.7" r="76.5"/>
	<g id="XMLID_222_">
		<path id="XMLID_225_" class="st2" d="M94.5,90.8h2.2l-8.5-17.7l-8.5,17.7h2.2l-2.2,4.7h2.2l-2.2,4.7h7.4v4.1
			c0,0.6,0.5,1.1,1.1,1.1l0,0c0.6,0,1.1-0.5,1.1-1.1v-4.1h7.4l-2.2-4.7h2.2L94.5,90.8z"/>
		<path id="XMLID_224_" class="st2" d="M89.4,100.2h7.4l-2.2-4.7h2.2l-2.2-4.7h2.2l-8.5-17.7v32.2l0,0c0.6,0,1.1-0.5,1.1-1.1V100.2z
			"/>
	</g>
	<path id="XMLID_43_" class="st3" d="M172.4,123.1c0,0-10.3-1.2-14.2,7.6c0,0-1.5,6.1-5.5,8c0,0,12.6-3.5,16.7-6.3
		c0,0,4.6-5.2,6.3-6.5"/>
	<g id="XMLID_217_">
		<path id="XMLID_220_" class="st2" d="M180.9,86.6h3.3l-12.5-26.2l-12.5,26.2h3.3l-3.3,6.9h3.3l-3.3,6.9h10.9v6
			c0,0.9,0.7,1.6,1.6,1.6l0,0c0.9,0,1.6-0.7,1.6-1.6v-6h10.9l-3.3-6.9h3.3L180.9,86.6z"/>
		<path id="XMLID_219_" class="st2" d="M173.2,100.4h10.9l-3.3-6.9h3.3l-3.3-6.9h3.3l-12.5-26.2v47.5l0,0c0.9,0,1.6-0.7,1.6-1.6
			V100.4z"/>
	</g>
	<g id="XMLID_212_">
		<path id="XMLID_216_" class="st2" d="M153.8,88.6h1.9l-7.3-15.3l-7.3,15.3h1.9l-1.9,4h1.9l-1.9,4h6.4v3.5c0,0.5,0.4,0.9,0.9,0.9
			l0,0c0.5,0,0.9-0.4,0.9-0.9v-3.5h6.4l-1.9-4h1.9L153.8,88.6z"/>
		<path id="XMLID_215_" class="st2" d="M149.3,96.6h6.4l-1.9-4h1.9l-1.9-4h1.9l-7.3-15.3v27.8l0,0c0.5,0,0.9-0.4,0.9-0.9L149.3,96.6
			L149.3,96.6z"/>
	</g>
	<g id="XMLID_209_">
		<path id="XMLID_211_" class="st2" d="M71.4,87.5h2.8L63.6,65.9L52.9,87.5h2.8l-2.8,5.7h2.8l-2.8,5.7h9.4v4.9
			c0,0.7,0.6,1.3,1.3,1.3l0,0c0.7,0,1.3-0.6,1.3-1.3v-4.9h9.4l-2.8-5.7h2.8L71.4,87.5z"/>
		<path id="XMLID_210_" class="st2" d="M64.9,98.9h9.4l-2.8-5.7h2.8l-2.8-5.7h2.8L63.6,65.9v39.3l0,0c0.7,0,1.3-0.6,1.3-1.3V98.9z"
			/>
	</g>
	<path id="XMLID_206_" class="st4" d="M84.3,107.5"/>
	<circle id="XMLID_205_" class="st5" cx="118.7" cy="105.7" r="76.5"/>
	<g id="XMLID_134_">
		<path id="XMLID_135_" class="st4" d="M41.6,146.7l-0.9-1.9L29,150.5l-0.9-1.8l11.7-5.7l-0.9-1.9l1.9-0.9l2.7,5.6L41.6,146.7z"/>
		<path id="XMLID_149_" class="st4" d="M47.1,151.9L34,159.7l-1-1.7l6.1-3.7l-1.1-1.8l-6.1,3.7l-1-1.7l13.1-7.8l1,1.7l-5.1,3
			l1.1,1.8l5.1-3L47.1,151.9z"/>
		<path id="XMLID_153_" class="st4" d="M40.7,162.9l-1.2-1.6l-3.1,1.7l-1.1-1.6l13.7-7l1.2,1.7l-11,10.8l-1.2-1.7L40.7,162.9z
			 M42.3,161.4l4.1-3.7l0,0l-4.8,2.7L42.3,161.4z"/>
		<path id="XMLID_156_" class="st4" d="M57.4,164.9l-11.4,10l-1.3-1.5l7-6.2l-7.9,5.2l-0.9-1.1l6.2-7.1l0,0l-7,6.2l-1.3-1.5l11.4-10
			L54,161l-6,7l0,0l7.7-5L57.4,164.9z"/>
		<path id="XMLID_180_" class="st4" d="M58.3,168.7l-2.6,2.7l1.5,1.4l-1.5,1.6l-1.5-1.4l-3.4,3.6l2.2,2.1l-1.5,1.6l-3.7-3.5l10.5-11
			l3.6,3.4l-1.5,1.6L58.3,168.7z"/>
		<path id="XMLID_182_" class="st4" d="M63,175.6l0.4-0.5c0.7-0.8,0.7-1.5,0.3-1.9c-0.4-0.3-1-0.2-1.5,0.3c-0.4,0.5-0.7,1-0.7,1.8
			l-0.4,3.7c-0.2,1.5-0.3,2.4-1.4,3.8c-1.4,1.7-3.2,1.8-4.5,0.7c-1.3-1-1.5-2.8-0.1-4.5l1-1.2l1.6,1.3l-0.9,1.1
			c-0.6,0.7-0.6,1.3-0.2,1.7c0.4,0.3,1,0.2,1.6-0.5c0.5-0.6,0.7-1.2,0.8-2l0.2-2.9c0.2-2,0.2-2.6,1.5-4.3c1.3-1.6,3.1-1.8,4.4-0.7
			s1.4,2.9,0.1,4.5l-0.7,0.8L63,175.6z"/>
		<path id="XMLID_199_" class="st4" d="M66.4,191.3l1.6-6.2c-0.2-0.1-0.5-0.3-0.6-0.3l-3.3,5.2l-1.7-1.1l8.1-12.8l2.9,1.8
			c1.6,1,1.4,3.2,0.1,5.2c-1.2,1.9-2.6,2.7-3.8,2.8l-1.7,6.6L66.4,191.3z M68.7,182.8l0.5,0.3c1.1,0.7,1.5,0.7,2.7-1.2
			c0.7-1,1-1.9,0.3-2.4l-1.1-0.7L68.7,182.8z"/>
		<path id="XMLID_203_" class="st4" d="M71.6,194.3l-1.8-1l7.3-13.3l1.8,1L71.6,194.3z"/>
		<path id="XMLID_218_" class="st4" d="M77.6,197.3l-2-0.9l4.1-14.8l2,0.9l-3.4,10.8l0,0l6.1-9.6l2,0.9L77.6,197.3z"/>
		<path id="XMLID_227_" class="st4" d="M88.4,187.6l-1.3,3.5l1.9,0.7l-0.7,2l-1.9-0.7l-1.7,4.6l2.9,1.1l-0.7,2l-4.8-1.8l5.2-14.3
			l4.6,1.7l-0.7,2L88.4,187.6z"/>
		<path id="XMLID_229_" class="st4" d="M93.4,202.8l-0.2-6.4c-0.3-0.1-0.5-0.2-0.6-0.2l-1.6,5.9l-1.9-0.5l4-14.6l3.3,0.9
			c1.9,0.5,2.3,2.6,1.6,5c-0.6,2.2-1.7,3.4-2.8,3.8l0.3,6.8L93.4,202.8z M93.1,194l0.6,0.2c1.3,0.4,1.7,0.2,2.3-1.9
			c0.3-1.2,0.4-2.1-0.4-2.4l-1.3-0.3L93.1,194z"/>
		<path id="XMLID_232_" class="st4" d="M105.3,201.6l-1.9-0.3l-0.9,3.4l-1.9-0.3l4.5-14.7l2,0.3l0.1,15.4l-2-0.3L105.3,201.6z
			 M105.3,199.4l0.2-5.5l0,0l-1.4,5.3L105.3,199.4z"/>
		<path id="XMLID_235_" class="st4" d="M116.5,190.9l-1,15.2l-2-0.1l-1.4-8.8l0,0l-0.6,8.7l-2-0.1l1-15.2l2.1,0.1l1.3,8.5l0,0
			l0.6-8.4L116.5,190.9z"/>
		<path id="XMLID_237_" class="st4" d="M121.8,195.2V194c0-0.5-0.4-1.2-1-1.2c-0.7,0-1,0.8-1,1.3l0.2,8.8c0,0.5,0.3,1.2,1.1,1.2
			c0.8,0,1.1-0.7,1.1-2l-0.1-2.3H121v-2.2l3-0.1l0.1,4.7c0,2.1-0.8,3.9-2.9,4c-2.3,0-3.1-1.8-3.1-3.3l-0.2-8.8c0-1.5,0.7-3.4,3-3.5
			c2.1,0,3,1.8,3.1,3.3v1.2L121.8,195.2z"/>
		<path id="XMLID_239_" class="st4" d="M130.9,203.2l0.2,2.2l-4.7,0.5l-1.5-15.1l2-0.2l1.3,13L130.9,203.2z"/>
		<path id="XMLID_241_" class="st4" d="M133,191.9l0.6,3.7l2-0.3l0.4,2.1l-2,0.3l0.8,4.9l3.1-0.5l0.4,2.1l-5.1,0.9l-2.5-15l4.8-0.8
			l0.4,2.1L133,191.9z"/>
		<path id="XMLID_243_" class="st4" d="M144.8,202.6l-3.4-5.5c-0.3,0.1-0.6,0.1-0.6,0.2l1.5,5.9l-2,0.5l-3.7-14.7l3.3-0.8
			c1.9-0.5,3.3,1.1,3.9,3.5c0.6,2.2,0.2,3.8-0.6,4.6l3.7,5.8L144.8,202.6z M140.3,195.1l0.6-0.2c1.3-0.3,1.6-0.6,1-2.8
			c-0.3-1.2-0.7-2-1.5-1.9l-1.3,0.3L140.3,195.1z"/>
		<path id="XMLID_246_" class="st4" d="M148.7,189.9l-0.2-0.6c-0.3-1-0.9-1.4-1.4-1.3c-0.5,0.2-0.7,0.8-0.5,1.4
			c0.2,0.6,0.5,1.1,1.1,1.6l2.9,2.3c1.2,0.9,1.9,1.5,2.5,3.2c0.7,2.1-0.2,3.7-1.7,4.2c-1.6,0.5-3.2-0.2-3.9-2.3l-0.5-1.5l1.9-0.7
			l0.5,1.3c0.3,0.9,0.8,1.2,1.3,1s0.7-0.8,0.4-1.6s-0.7-1.3-1.3-1.7l-2.4-1.6c-1.6-1.3-2.2-1.6-2.8-3.5c-0.7-1.9,0.1-3.6,1.7-4.2
			c1.6-0.6,3.2,0.3,3.9,2.2l0.3,1L148.7,189.9z"/>
		<path id="XMLID_248_" class="st4" d="M161.7,192.4l-1.8,0.9l1.2,3.4l-1.7,0.8l-4.5-14.7l1.8-0.9l8.7,12.6l-1.8,0.9L161.7,192.4z
			 M160.5,190.6l-2.9-4.6l0,0l1.8,5.2L160.5,190.6z"/>
		<path id="XMLID_251_" class="st4" d="M164.8,182.3l-0.3-0.5c-0.5-0.9-1.2-1.2-1.6-1c-0.4,0.3-0.5,0.9-0.2,1.5s0.7,0.9,1.4,1.3
			l3.3,1.6c1.3,0.7,2.2,1.1,3.1,2.7c1.1,1.9,0.5,3.6-0.9,4.5c-1.4,0.8-3.2,0.4-4.3-1.4l-0.8-1.4l1.8-1l0.7,1.2c0.5,0.8,1,1,1.5,0.7
			c0.4-0.3,0.5-0.9,0.1-1.7c-0.4-0.7-0.9-1.1-1.6-1.4l-2.6-1.1c-1.8-0.9-2.4-1.1-3.5-2.9c-1-1.8-0.7-3.5,0.8-4.4s3.2-0.3,4.3,1.4
			l0.5,0.9L164.8,182.3z"/>
		<path id="XMLID_253_" class="st4" d="M170.8,178.4l-0.4-0.5c-0.6-0.9-1.3-1.1-1.7-0.8s-0.5,0.9-0.1,1.5c0.4,0.5,0.7,0.9,1.5,1.2
			l3.5,1.4c1.4,0.5,2.3,0.9,3.3,2.4c1.3,1.8,0.8,3.6-0.5,4.5s-3.1,0.7-4.4-1.1l-0.9-1.3l1.7-1.2l0.8,1.2c0.5,0.8,1.1,0.9,1.5,0.6
			c0.4-0.3,0.5-0.9-0.1-1.7c-0.5-0.7-1-1-1.7-1.3l-2.7-0.9c-1.9-0.8-2.5-0.9-3.7-2.6c-1.2-1.7-0.9-3.5,0.5-4.5s3.2-0.6,4.4,1.1
			l0.6,0.9L170.8,178.4z"/>
		<path id="XMLID_255_" class="st4" d="M177.5,171.7l5.6,6.7c1,1.2,1.5,3.2-0.1,4.5c-1.7,1.4-3.5,0.5-4.5-0.7l-5.6-6.7
			c-1-1.2-1.6-3.1,0.2-4.5C174.7,169.6,176.5,170.5,177.5,171.7z M176,173c-0.3-0.3-1.1-0.8-1.5-0.4c-0.5,0.5-0.2,1.3,0,1.6l5.6,6.7
			c0.3,0.4,1.1,0.8,1.6,0.4c0.4-0.4,0.2-1.2-0.1-1.6L176,173z"/>
		<path id="XMLID_259_" class="st4" d="M182.3,168.8l-0.8-0.9c-0.3-0.3-1.1-0.6-1.5-0.2c-0.5,0.5-0.2,1.3,0.1,1.6l6.2,6.2
			c0.3,0.3,1.1,0.7,1.6,0.2c0.4-0.4,0.1-1.2-0.2-1.5l-0.8-0.9l1.5-1.4l0.8,0.9c1.1,1.1,1.7,3.1,0.3,4.5c-1.6,1.6-3.5,0.8-4.6-0.2
			l-6.2-6.3c-1.1-1.1-1.8-3-0.2-4.6c1.5-1.4,3.4-0.8,4.5,0.3l0.8,0.9L182.3,168.8z"/>
		<path id="XMLID_261_" class="st4" d="M194.1,171.9l-1.4,1.5l-11.3-10.1l1.4-1.5L194.1,171.9z"/>
		<path id="XMLID_263_" class="st4" d="M195.3,164.8l-1.2,1.5l2.5,2.5l-1.2,1.5l-10.5-11.2l1.3-1.6l13.4,7.6l-1.3,1.6L195.3,164.8z
			 M193.4,163.7l-4.7-2.9l0,0l3.9,3.9L193.4,163.7z"/>
		<path id="XMLID_266_" class="st4" d="M192.5,152.5l-1.2,1.7l10.7,7.4l-1.2,1.7l-10.7-7.4l-1.2,1.7l-1.8-1.2l3.5-5.1L192.5,152.5z"
			/>
		<path id="XMLID_268_" class="st4" d="M205.3,156.4l-1,1.7l-13-7.8l1-1.7L205.3,156.4z"/>
		<path id="XMLID_270_" class="st4" d="M198.6,143.6l7.8,4c1.4,0.7,2.6,2.4,1.7,4.2c-1,2-3.1,1.8-4.4,1.1l-7.8-4
			c-1.4-0.7-2.6-2.3-1.6-4.3C195.1,142.9,197.2,142.9,198.6,143.6z M197.7,145.4c-0.4-0.2-1.3-0.3-1.6,0.2c-0.3,0.6,0.3,1.3,0.6,1.5
			l7.8,4c0.4,0.2,1.3,0.3,1.6-0.3c0.3-0.5-0.3-1.2-0.7-1.4L197.7,145.4z"/>
		<path id="XMLID_273_" class="st4" d="M198.6,135.4l14,5.8l-0.8,1.9l-8.8-1.5l0,0l8,3.3l-0.8,1.9l-14-5.8l0.8-2l8.5,1.5l0,0
			l-7.8-3.2L198.6,135.4z"/>
	</g>
	<g id="XMLID_56_">
		<g id="XMLID_491_">
			<path id="XMLID_515_" class="st6" d="M89.2,160.9h-1.5l-0.3,2.1h-1.5l1.8-8.8h1.6l1.8,8.8h-1.5L89.2,160.9z M89,159.6l-0.5-3.2
				l0,0l-0.5,3.2H89z"/>
			<path id="XMLID_513_" class="st6" d="M97.6,154.1v8.8H96l-1.6-5.1l0,0v5.1h-1.6v-8.8h1.7L96,159l0,0v-4.9H97.6z"/>
			<path id="XMLID_511_" class="st6" d="M102.5,156.7V156c0-0.3-0.3-0.7-0.7-0.7c-0.6,0-0.8,0.5-0.8,0.7v5.1c0,0.3,0.2,0.7,0.8,0.7
				c0.6,0,0.9-0.4,0.9-1.1v-1.3h-0.9v-1.3h2.3v2.7c0,1.2-0.7,2.3-2.3,2.3c-1.8,0-2.4-1.1-2.4-2V156c0-0.9,0.6-2,2.4-2
				c1.6,0,2.3,1.1,2.3,2v0.7L102.5,156.7L102.5,156.7z"/>
			<path id="XMLID_509_" class="st6" d="M109.6,161.7v1.3H106v-8.8h1.6v7.6h2V161.7z"/>
			<path id="XMLID_507_" class="st6" d="M112.9,155.4v2.2h1.6v1.3h-1.6v2.9h2.4v1.3h-4v-8.8h3.8v1.3h-2.2V155.4z"/>
			<path id="XMLID_504_" class="st6" d="M120.6,163l-1.5-3.6c-0.2,0-0.4,0-0.5,0v3.6H117v-8.8h2.6c1.5,0,2.2,1.1,2.2,2.5
				c0,1.3-0.6,2.2-1.3,2.5l1.7,3.8H120.6z M118.6,158.1h0.5c1,0,1.3-0.1,1.3-1.4c0-0.7-0.2-1.3-0.8-1.3h-1V158.1z"/>
			<path id="XMLID_502_" class="st6" d="M126.6,156.6v-0.4c0-0.6-0.3-1-0.7-1c-0.4,0-0.7,0.3-0.7,0.7s0.1,0.7,0.4,1.1l1.6,1.8
				c0.6,0.7,1,1.2,1,2.2c0,1.3-1.1,2-2.3,2c-1.3,0-2.3-0.7-2.3-2v-0.9h1.6v0.8c0,0.5,0.3,0.8,0.7,0.8c0.4,0,0.7-0.3,0.7-0.8
				s-0.2-0.8-0.5-1.2l-1.3-1.3c-0.8-1-1.2-1.3-1.2-2.5s1-2,2.3-2s2.3,0.8,2.3,2v0.6L126.6,156.6L126.6,156.6z"/>
			<path id="XMLID_500_" class="st6" d="M130,161.4h1.6v1.6H130V161.4z"/>
			<path id="XMLID_497_" class="st6" d="M138.1,156v5.1c0,0.9-0.7,2-2.3,2c-1.7,0-2.4-1.1-2.4-2V156c0-0.9,0.6-2,2.4-2
				C137.3,154,138.1,155.1,138.1,156z M136.5,156c0-0.3-0.3-0.7-0.7-0.7c-0.6,0-0.8,0.5-0.8,0.7v5.1c0,0.3,0.2,0.8,0.8,0.8
				c0.5,0,0.7-0.5,0.7-0.8V156z"/>
			<path id="XMLID_494_" class="st6" d="M143.5,163l-1.5-3.6c-0.2,0-0.4,0-0.5,0v3.6h-1.6v-8.8h2.6c1.5,0,2.2,1.1,2.2,2.5
				c0,1.3-0.6,2.2-1.3,2.5l1.7,3.8H143.5z M141.5,158.1h0.5c1,0,1.3-0.1,1.3-1.4c0-0.7-0.2-1.3-0.8-1.3h-1V158.1z"/>
			<path id="XMLID_492_" class="st6" d="M149.6,156.7V156c0-0.3-0.3-0.7-0.7-0.7c-0.6,0-0.8,0.5-0.8,0.7v5.1c0,0.3,0.2,0.7,0.8,0.7
				s0.9-0.4,0.9-1.1v-1.3h-0.9v-1.3h2.3v2.7c0,1.2-0.7,2.3-2.3,2.3c-1.8,0-2.4-1.1-2.4-2V156c0-0.9,0.6-2,2.4-2c1.6,0,2.3,1.1,2.3,2
				v0.7L149.6,156.7L149.6,156.7z"/>
		</g>
	</g>
	<g id="XMLID_1_">
		<g id="XMLID_427_">
			<path id="XMLID_446_" class="st6" d="M94.8,58.2v2.4h1.8V62h-1.8v3.2h2.7v1.4h-4.4v-9.8h4.2v1.4C97.3,58.2,94.8,58.2,94.8,58.2z"
				/>
			<path id="XMLID_444_" class="st6" d="M102.6,59.6v-0.4c0-0.7-0.4-1.1-0.8-1.1s-0.8,0.3-0.8,0.8c0,0.4,0.1,0.7,0.5,1.2l1.8,2
				c0.7,0.8,1.1,1.3,1.1,2.5c0,1.4-1.2,2.2-2.6,2.2s-2.5-0.8-2.5-2.2v-1h1.8v0.9c0,0.6,0.3,0.9,0.8,0.9c0.4,0,0.8-0.3,0.8-0.9
				c0-0.5-0.2-0.9-0.6-1.3l-1.5-1.6c-0.9-1.1-1.3-1.4-1.3-2.7s1.1-2.2,2.6-2.2s2.5,0.9,2.5,2.2v0.7H102.6z"/>
			<path id="XMLID_442_" class="st6" d="M111.5,58.2h-1.8v8.4h-1.8v-8.4h-1.8v-1.4h5.4C111.5,56.8,111.5,58.2,111.5,58.2z"/>
			<path id="XMLID_440_" class="st6" d="M112.6,64.9h1.8v1.8h-1.8V64.9z"/>
			<path id="XMLID_438_" class="st6" d="M120.3,56.8h1.8v9.8h-1.8v-8.4h-0.8v-1L120.3,56.8z"/>
			<path id="XMLID_435_" class="st6" d="M124.1,60.7c0-0.1,0-1.2,0-1.4c0-1.5,1-2.6,2.8-2.6s2.6,1.2,2.6,2.2c0,0,0,4.7,0,4.9
				c0,1.6-1.1,2.9-2.7,2.9c-1.7,0-2.4-1.2-2.4-2.2v-0.8h1.7v0.8c0,0.4,0.3,0.8,0.8,0.8c0.7,0,0.9-0.7,0.9-1.5v-1.6
				c-0.2,0.3-0.6,0.5-1.2,0.5C124.9,62.8,124.1,61.8,124.1,60.7z M125.9,60.7c0,0.5,0.4,0.8,0.9,0.8c0.6,0,0.9-0.3,0.9-0.5v-2
				c0-0.3-0.3-0.8-0.8-0.8c-0.7,0-1,0.4-1,1.2C125.9,59.4,125.9,60.5,125.9,60.7z"/>
			<path id="XMLID_431_" class="st6" d="M137.1,63.8c0,1.6-1.1,2.9-2.8,2.9s-2.9-1.3-2.9-2.9c0-1.4,0.7-2.1,1.6-2.5
				c-0.6-0.3-1.3-1.2-1.3-2.2c0-1.5,0.9-2.5,2.5-2.5c1.6,0,2.5,0.9,2.5,2.5c0,1-0.6,1.9-1.3,2.2C136.3,61.7,137.1,62.5,137.1,63.8z
				 M135.3,63.8c0-0.9-0.2-1.6-1-1.8c-0.8,0.2-1.1,0.8-1.1,1.8c0,1,0.4,1.5,1.2,1.5C135,65.4,135.3,64.6,135.3,63.8z M133.4,59.3
				c0,0.5,0.2,1,0.9,1.2c0.6-0.2,0.8-0.7,0.8-1.2c0-0.7-0.3-1.2-0.8-1.2S133.4,58.6,133.4,59.3z"/>
			<path id="XMLID_428_" class="st6" d="M144.4,62.8c0,0.1,0,1.2,0,1.4c0,1.5-1,2.6-2.8,2.6s-2.6-1.2-2.6-2.2c0,0,0-4.7,0-4.9
				c0-1.6,1-2.9,2.6-2.9c1.7,0,2.5,1.2,2.5,2.2v0.7h-1.7V59c0-0.4-0.3-0.8-0.8-0.8c-0.7,0-0.9,0.8-0.9,1.5v1.5
				c0.2-0.3,0.6-0.5,1.2-0.5C143.6,60.7,144.4,61.7,144.4,62.8z M142.6,62.8c0-0.5-0.4-0.8-0.9-0.8s-0.9,0.3-0.9,0.5v2
				c0,0.3,0.3,0.8,0.8,0.8c0.7,0,1-0.4,1-1.2C142.6,64.1,142.6,63,142.6,62.8z"/>
		</g>
	</g>
	<g id="XMLID_194_">
		<circle id="XMLID_197_" class="st7" cx="118.8" cy="41.1" r="3.9"/>
		
			<ellipse id="XMLID_195_" transform="matrix(0.7714 -0.6364 0.6364 0.7714 2.0494 83.3539)" class="st0" cx="117" cy="38.8" rx="0.8" ry="0.5"/>
	</g>
	<g id="XMLID_191_">
		<circle id="XMLID_193_" class="st7" cx="96.7" cy="46.3" r="3.9"/>
		
			<ellipse id="XMLID_192_" transform="matrix(0.7714 -0.6364 0.6364 0.7714 -6.3453 70.4297)" class="st0" cx="94.8" cy="44" rx="0.8" ry="0.5"/>
	</g>
	<g id="XMLID_188_">
		<circle id="XMLID_190_" class="st7" cx="140.2" cy="46.3" r="3.9"/>
		
			<ellipse id="XMLID_189_" transform="matrix(0.7714 -0.6364 0.6364 0.7714 3.6356 98.1664)" class="st0" cx="138.4" cy="44" rx="0.8" ry="0.5"/>
	</g>
	<ellipse id="XMLID_187_" class="st0" cx="96.7" cy="47.6" rx="2" ry="1"/>
	<ellipse id="XMLID_186_" class="st0" cx="118.8" cy="42.4" rx="2" ry="1"/>
	<ellipse id="XMLID_185_" class="st0" cx="140.2" cy="47.6" rx="2" ry="1"/>
	<path id="XMLID_40_" class="st8" d="M131,97c0,0-2.8-1.5-4.3-1.6c0,0-11.1-10.6-13.7-12c0,0-6.7,11-9.7,11.9c0,0-0.8,1,2.7,1.3
		c0,0,3.3,0,3.6,0.4c0,0,1.2,0.4,1.1,1.1"/>
	<path id="XMLID_37_" class="st8" d="M83.4,99.5c0,0-5-3.1-12.8-3.5c0,0-2.3,0.5-4.2,4.3c0,0,0,0.7,1.2,1.3"/>
	<path id="XMLID_11_" class="st8" d="M63.1,117.6c-1.5-0.2-13.2,4.8-13.2,4.8C26.3,137.2,17.1,135,17.1,135c0-5,8.9-19.2,8.9-19.2
		c4.7-5.8,1.9-9.6,1.9-9.6c-10.5-21.5-9.2-21.7-9.2-21.7c5.8-0.1,27.9,10.1,27.9,10.1c4,2.2,10.6,4.8,10.6,4.8l5.1,2
		c1.5,0.8,13.2,0.5,13.2,0.5c23.6-6.8,94.1-6.3,94.1-6.3l7.8,0.6c0,0,30.4,3.7,35.1,11.9c0,0-7.2,3.8-11.5,7.8c0,0,6.1-0.7,7.5-1
		l5.3-0.4c0,0,0.4,0.4-7.7,6.3c0,0-5.5,2.8-12.5,4.8l-7.3,1.6c-6,1.5-11.7,4.4-16.8,5.4c0,0-14.7,3-39,1.3
		c-24.3-1.7-16.6-2.7-35.7-7.3C75.6,121.7,75.1,119.5,63.1,117.6z"/>
	<path id="XMLID_12_" class="st8" d="M130.4,127.4c0,0-3.6,15.2-10.3,17.4c0,0-3-3-5.1-8.4c-0.7-1.9-1.3-4-1.7-6.4
		c0,0,0.3-2.4,2.3-2.6c0,0,3.2,1.1,4.7,0"/>
	<path id="XMLID_5_" class="st8" d="M90.6,124c0,0-4,6.3-9.8,10.1c0,0-2.8,3-4.1,2.7c-0.7-0.2-0.3-2.2-0.1-4.9c0,0-1.6-5.2-5.4-8.7
		c0,0-1.8-1.5,0-2.3c0,0,0.4,0.1,5-1"/>
	<polygon id="XMLID_196_" class="st9" points="110,156.6 117.6,156.6 117.6,156.6 	"/>
	<g id="XMLID_294_">
		<path id="XMLID_315_" class="st9" d="M52.9,122"/>
	</g>
	<g id="XMLID_114_">
		<path id="XMLID_312_" class="st9" d="M52.9,96.6"/>
	</g>
	<g id="XMLID_173_">
		<polygon id="XMLID_176_" class="st6" points="22.1,91.5 43.5,99.7 21.5,93.4 		"/>
	</g>
	<g id="XMLID_170_">
		<polygon id="XMLID_316_" class="st6" points="26.4,101.7 37.8,104 26.1,103.6 		"/>
	</g>
	<g id="XMLID_167_">
		<polygon id="XMLID_174_" class="st6" points="27.5,112.2 37.8,110.9 28,114.2 		"/>
	</g>
	<g id="XMLID_164_">
		<polygon id="XMLID_171_" class="st6" points="24.3,117.9 41.5,115 24.8,119.8 		"/>
	</g>
	<g id="XMLID_161_">
		<polygon id="XMLID_168_" class="st6" points="20.3,124.2 42.5,117.8 21,126.1 		"/>
	</g>
	<g id="XMLID_158_">
		<polygon id="XMLID_165_" class="st6" points="17.3,129.7 42.2,122 18,131.6 		"/>
	</g>
	<path id="XMLID_157_" class="st6" d="M200,105.9c0-0.4-0.2-0.8-0.6-0.8c-0.1,0-0.5-0.2-0.7-0.2c-0.3-0.1-0.7-0.1-1,0
		c-0.2,0-1,0.3-1.1,0.4c-0.6,0.3-0.6,0.4-1,1c-0.2,0.4-0.1,1.2,0.3,1.4c0.9,0.4,1.4,1.1,2.4,0.9c0.3,0,0.7-0.1,0.9-0.4
		c0.3-0.3,0.4-0.6,0.5-0.9s0.1-0.3,0.2-0.6"/>
	<path id="XMLID_22_" class="st10" d="M57.3,118.8c0,0,4.6-6.3,44.9,9.8c0,0-0.8-0.1,11.1,3.3"/>
	<path id="XMLID_9_" class="st11" d="M128.4,133.6c5.6,0.2,16.6,0.6,24.3,0.5c0,0,1.6,0,4.2-0.1"/>
	<g id="XMLID_20_">
		<path id="XMLID_27_" class="st6" d="M172.4,123.2c-1.4-0.1-2.9,0.1-4.2,0.3c-0.3,0.1-0.7,0.2-1,0.2c-0.3,0.1-0.7,0.2-1,0.3
			c-0.3,0.1-0.7,0.2-1,0.4c-0.3,0.1-0.6,0.3-0.9,0.5c-0.3,0.2-0.6,0.3-0.9,0.5l-0.9,0.6c-0.3,0.2-0.5,0.5-0.8,0.7s-0.5,0.5-0.7,0.7
			c-0.2,0.3-0.5,0.5-0.7,0.8l-0.6,0.9c-0.4,0.6-0.6,1.2-1,1.8v-0.1c-0.2,0.9-0.5,1.7-0.8,2.5s-0.7,1.6-1.1,2.3
			c-0.4,0.7-1,1.5-1.6,2.1c-0.3,0.3-0.6,0.6-1,0.9c-0.2,0.1-0.4,0.3-0.6,0.4l-0.6,0.3l-0.6-1.5c2.8-0.9,5.6-1.9,8.4-2.9
			c1.4-0.5,2.8-1,4.1-1.6c0.7-0.3,1.3-0.5,2-0.8c0.6-0.3,1.3-0.6,1.9-1l-0.1,0.1c1.1-1.1,2.2-2.2,3.3-3.2c0.6-0.5,1.1-1,1.7-1.5
			c0.6-0.5,1.2-1,1.9-1.4h0.1v0.1c-1.1,1.1-2,2.3-2.9,3.5l-2.8,3.5l-0.1,0.1l0,0c-0.3,0.2-0.7,0.5-1,0.7l-1,0.6
			c-0.7,0.4-1.4,0.7-2.1,1c-0.7,0.3-1.4,0.6-2.1,0.9c-0.7,0.3-1.4,0.5-2.1,0.8c-1.4,0.5-2.9,0.9-4.3,1.3c-1.4,0.4-2.9,0.8-4.3,1.2
			c-0.4,0.1-0.9-0.2-1-0.6c-0.1-0.4,0.1-0.7,0.4-0.9l0,0l0.5-0.2c0.2-0.1,0.3-0.2,0.5-0.3c0.3-0.2,0.6-0.5,0.9-0.7
			c0.5-0.5,1-1.1,1.5-1.8c0.4-0.7,0.8-1.4,1.1-2.1s0.6-1.5,0.8-2.2v-0.1l0,0c0.4-0.6,0.7-1.3,1.1-1.9l0.7-0.9
			c0.2-0.3,0.5-0.5,0.8-0.8s0.5-0.5,0.8-0.8c0.3-0.2,0.6-0.5,0.9-0.7l0.9-0.6c0.3-0.2,0.7-0.3,1-0.5s0.7-0.3,1-0.4s0.7-0.3,1-0.3
			c0.4-0.1,0.7-0.2,1.1-0.3c0.4-0.1,0.7-0.2,1.1-0.2c1.4-0.2,2.9-0.3,4.3-0.1c0.1,0,0.1,0.1,0.1,0.1
			C172.5,123.2,172.5,123.2,172.4,123.2z"/>
	</g>
	<g id="XMLID_18_">
		<path id="XMLID_26_" class="st6" d="M131,97c-0.7-0.3-1.4-0.5-2.2-0.7c-0.4-0.1-0.7-0.2-1.1-0.3c-0.4-0.1-0.7-0.1-1-0.1h-0.1
			l-0.1-0.1c-2.4-1.9-4.7-3.9-7-5.9c-1.2-1-2.3-2-3.5-2.9c-0.6-0.5-1.2-1-1.7-1.4c-0.3-0.2-0.6-0.5-0.9-0.7s-0.6-0.4-0.8-0.6
			l1.3-0.4c-0.7,1.1-1.4,2.2-2.1,3.3c-0.7,1.1-1.5,2.1-2.3,3.2c-0.8,1-1.6,2.1-2.5,3c-0.5,0.5-0.9,1-1.5,1.4
			c-0.3,0.2-0.5,0.4-0.8,0.6s-0.6,0.4-1.1,0.5l0.3-0.2c0.1-0.1,0-0.1,0.1-0.2c0-0.1,0-0.1,0-0.1l0,0c0,0,0,0,0.1,0.1
			c0.1,0,0.1,0.1,0.2,0.1s0.2,0.1,0.3,0.1c0.5,0.2,1,0.2,1.6,0.3l0,0c0.6,0,1.2,0.1,1.9,0.2c0.3,0,0.6,0.1,0.9,0.2
			c0.2,0,0.3,0.1,0.5,0.1c0.1,0,0.2,0.1,0.2,0.1c0.1,0,0.2,0.1,0.3,0.2l-0.1-0.1c0.3,0.1,0.5,0.3,0.7,0.5s0.4,0.5,0.3,0.8
			c0-0.3-0.2-0.5-0.4-0.6c-0.2-0.1-0.5-0.2-0.7-0.3l-0.1-0.1h-0.1c-0.1,0-0.1,0-0.2,0s-0.3,0-0.4,0c-0.3,0-0.6,0-0.9,0
			c-0.6,0-1.2,0-1.8,0.1l0,0c-0.6,0-1.2-0.1-1.8-0.2c-0.2,0-0.3-0.1-0.5-0.1s-0.3-0.1-0.5-0.2s-0.4-0.3-0.5-0.6
			c-0.1-0.2-0.1-0.4-0.1-0.6s0.1-0.3,0.2-0.5l0.1-0.1l0.2-0.1c0.4-0.2,0.9-0.5,1.3-1c0.4-0.4,0.8-0.9,1.2-1.4c0.8-1,1.6-2,2.3-3
			c0.7-1,1.5-2.1,2.2-3.2s1.4-2.2,2.1-3.2l0.5-0.8l0.8,0.5c0.4,0.2,0.7,0.5,1,0.7s0.6,0.5,0.9,0.7c0.6,0.5,1.2,1,1.8,1.5
			c1.1,1,2.3,2.1,3.4,3.1c2.2,2.1,4.4,4.3,6.4,6.5L127,95c0.4,0,0.8,0.2,1.2,0.3c0.4,0.1,0.7,0.3,1.1,0.5
			C129.7,96.2,130.3,96.6,131,97z"/>
	</g>
	<g id="XMLID_146_">
		<path id="XMLID_148_" class="st6" d="M125.5,97l-11.8-10.6l12.5,9.9c0.2,0.2,0.3,0.5,0.1,0.7C126.1,97.2,125.8,97.2,125.5,97
			C125.6,97,125.5,97,125.5,97z"/>
	</g>
	<g id="XMLID_143_">
		<path id="XMLID_145_" class="st6" d="M120.7,97l-7.9-7.7l8.5,6.9c0.2,0.2,0.2,0.5,0.1,0.7S121,97.2,120.7,97
			C120.8,97,120.7,97,120.7,97z"/>
	</g>
	<g id="XMLID_140_">
		<path id="XMLID_142_" class="st6" d="M116.4,96.6l-4.9-4.7l5.5,3.9c0.2,0.2,0.3,0.5,0.1,0.7C117,96.8,116.7,96.8,116.4,96.6
			C116.5,96.6,116.5,96.6,116.4,96.6z"/>
	</g>
	<g id="XMLID_137_">
		<path id="XMLID_139_" class="st6" d="M112.8,97.2l-3.9-3.7l4.5,2.9c0.2,0.1,0.3,0.5,0.2,0.7S113.1,97.4,112.8,97.2L112.8,97.2z"/>
	</g>
	<g id="XMLID_16_">
		<path id="XMLID_25_" class="st6" d="M83.4,99.5c-1.1-0.3-2.2-0.6-3.2-0.9c-0.5-0.1-1.1-0.3-1.6-0.4S77.5,98,77,97.9
			c-0.5-0.1-1.1-0.2-1.6-0.3c-0.5-0.1-1.1-0.2-1.6-0.2c-0.5-0.1-1.1-0.1-1.6-0.2s-1.1-0.1-1.6-0.2h0.3c0,0-0.1,0-0.2,0.1
			c-0.1,0-0.2,0.1-0.3,0.1c-0.2,0.1-0.4,0.2-0.6,0.3c-0.4,0.2-0.7,0.5-1.1,0.9c-0.3,0.3-0.7,0.7-1,1.1c-0.3,0.4-0.6,0.8-0.9,1.2
			v-0.2c0-0.1,0,0,0,0s0,0,0,0.1c0,0,0,0.1,0,0.2s0.1,0.2,0.1,0.4c0.1,0.2,0.3,0.5,0.5,0.7c-0.3-0.1-0.6-0.2-0.9-0.4
			c-0.2-0.1-0.3-0.2-0.4-0.4c-0.1-0.1-0.1-0.2-0.2-0.2c0,0-0.1-0.1-0.1-0.2s0-0.1-0.1-0.2v-0.1l0.1-0.2c0.2-0.5,0.4-1,0.6-1.5
			c0.3-0.5,0.5-1,0.9-1.4c0.3-0.5,0.7-0.9,1.2-1.2c0.2-0.2,0.5-0.4,0.7-0.5c0.1-0.1,0.3-0.2,0.4-0.2c0.2-0.1,0.3-0.1,0.5-0.2h0.1
			h0.2c1.2,0,2.3,0.1,3.4,0.3c1.1,0.2,2.3,0.5,3.3,0.8c1.1,0.4,2.2,0.8,3.2,1.3C81.6,98.1,82.5,98.7,83.4,99.5z"/>
	</g>
	<path id="XMLID_133_" class="st6" d="M166.9,102.3c0-0.1-0.1-0.1-0.1-0.2c0-0.3-0.2-0.5-0.4-0.6c0,0-0.4-0.1-0.5-0.1
		c-0.2-0.1-0.5-0.1-0.7,0c-0.1,0-0.7,0.2-0.8,0.3c-0.4,0.2-0.6,0.5-0.8,1c-0.2,0.2-0.2,0.6,0.1,0.8c0.6,0.3,1.3,0.7,2,0.5
		c0.2,0,0.5-0.1,0.6-0.3c0.2-0.2,0.3-0.4,0.3-0.7c0.1-0.2,0.1-0.2,0.1-0.4C166.8,102.7,166.9,102.4,166.9,102.3z"/>
	<path id="XMLID_132_" class="st6" d="M152.5,102.4c0,0,0-0.1-0.1-0.1c0-0.2-0.1-0.3-0.3-0.4c0,0-0.2-0.1-0.3-0.1s-0.3,0-0.4,0
		c-0.1,0-0.4,0.1-0.5,0.2c-0.3,0.1-0.4,0.3-0.5,0.6c-0.1,0.2-0.1,0.4,0,0.5c0.4,0.2,0.8,0.4,1.2,0.3c0.1,0,0.3-0.1,0.4-0.2
		c0.1-0.1,0.2-0.2,0.2-0.4c0.1-0.1,0.1-0.1,0.1-0.2C152.4,102.7,152.5,102.5,152.5,102.4z"/>
	<path id="XMLID_131_" class="st6" d="M78.3,99.1C78.3,99.1,78.3,99,78.3,99.1c-0.1-0.3-0.2-0.4-0.4-0.5c0,0-0.2-0.1-0.3-0.1
		c-0.1,0-0.3,0-0.4,0s-0.4,0.1-0.5,0.2c-0.2,0.1-0.4,0.3-0.5,0.6c-0.1,0.2-0.1,0.4,0,0.5c0.4,0.2,0.8,0.4,1.2,0.3
		c0.1,0,0.3-0.1,0.4-0.2s0.2-0.2,0.2-0.4c0.1-0.1,0.1-0.1,0.1-0.2C78.2,99.3,78.3,99.1,78.3,99.1z"/>
	<path id="XMLID_130_" class="st6" d="M70.4,100.1L70.4,100.1c-0.1-0.2-0.1-0.3-0.2-0.3c0,0-0.1,0-0.2-0.1c-0.1,0-0.2,0-0.3,0
		s-0.3,0.1-0.3,0.1c-0.2,0.1-0.2,0.2-0.3,0.4c-0.1,0.1-0.1,0.2,0,0.3c0.2,0.1,0.5,0.3,0.8,0.2c0.1,0,0.2,0,0.2-0.1
		c0.1-0.1,0.1-0.2,0.1-0.3C70.2,100.2,70.2,100.2,70.4,100.1C70.4,100.3,70.4,100.2,70.4,100.1z"/>
	<path id="XMLID_129_" class="st6" d="M73.4,98.1L73.4,98.1c0-0.1-0.1-0.2-0.2-0.2h-0.1c-0.1,0-0.1,0-0.2,0L72.7,98
		c-0.1,0.1-0.2,0.2-0.2,0.3c0,0.1-0.1,0.2,0,0.2c0.2,0.1,0.4,0.2,0.6,0.2c0.1,0,0.1,0,0.2-0.1s0.1-0.1,0.1-0.2
		C73.3,98.3,73.3,98.3,73.4,98.1C73.3,98.2,73.4,98.1,73.4,98.1z"/>
	<path id="XMLID_8_" class="st12" d="M169.4,132.4c5.1-1,10.7-3.9,16.8-5.4l7.3-1.6c7-2,12.5-4.8,12.5-4.8c8.1-5.8,7.7-6.3,7.7-6.3
		l-5.3,0.4c-1.4,0.4-7.5,1-7.5,1c4.2-4,11.5-7.8,11.5-7.8c-4.6-8.2-35.1-11.9-35.1-11.9l-7.8-0.6c0,0-70.5-0.5-94.1,6.3
		c0,0-11.7,0.3-13.2-0.5l-5.1-2c0,0-6.6-2.6-10.5-4.7c0,0-22.2-10.3-27.9-10.1c0,0-1.3,0.1,9.2,21.7c0,0,2.8,3.8-1.9,9.6
		c0,0-8.9,14.2-8.9,19.2c0,0,9.2,2.2,32.8-12.6c0,0,11.7-5,13.2-4.7"/>
	<path id="XMLID_127_" class="st13" d="M206.3,113.5"/>
	<path id="XMLID_126_" class="st6" d="M157.1,107.9c0,0,0-0.1-0.1-0.1c0-0.2-0.1-0.3-0.3-0.4c0,0-0.2-0.1-0.3-0.1s-0.3,0-0.4,0
		c-0.1,0-0.4,0.1-0.5,0.2c-0.2,0.1-0.4,0.3-0.5,0.6c-0.1,0.2-0.1,0.4,0,0.5c0.4,0.2,0.8,0.4,1.2,0.3c0.1,0,0.3-0.1,0.4-0.2
		c0.1-0.1,0.2-0.2,0.2-0.4c0.1-0.1,0.1-0.1,0.1-0.2C157.1,108.2,157.2,108,157.1,107.9z"/>
	<path id="XMLID_125_" class="st6" d="M123.2,103.7C123.2,103.7,123.2,103.6,123.2,103.7c-0.1-0.3-0.2-0.4-0.4-0.5
		c0,0-0.2-0.1-0.3-0.1c-0.1,0-0.3,0-0.4,0s-0.4,0.1-0.5,0.2c-0.2,0.1-0.4,0.3-0.5,0.6c-0.1,0.2-0.1,0.4,0,0.5
		c0.4,0.2,0.8,0.4,1.2,0.3c0.1,0,0.3-0.1,0.4-0.2s0.2-0.2,0.2-0.4c0.1-0.1,0.1-0.1,0.1-0.2C123.1,104,123.2,103.8,123.2,103.7z"/>
	<path id="XMLID_124_" class="st6" d="M88.3,105.7c0-0.1-0.1-0.1-0.1-0.2c0-0.3-0.2-0.5-0.4-0.6c0,0-0.4-0.1-0.5-0.1
		c-0.2-0.1-0.5-0.1-0.7,0c-0.1,0-0.7,0.2-0.8,0.3c-0.4,0.2-0.6,0.5-0.8,1c-0.2,0.2-0.2,0.6,0.1,0.8c0.6,0.3,1.3,0.7,2,0.5
		c0.2,0,0.5-0.1,0.6-0.3c0.2-0.2,0.3-0.4,0.3-0.7c0.1-0.2,0.1-0.2,0.1-0.4C88.2,106.1,88.3,105.8,88.3,105.7z"/>
	<path id="XMLID_123_" class="st6" d="M91.8,114.7c0-0.1-0.1-0.1-0.1-0.2c0-0.3-0.2-0.5-0.4-0.6c0,0-0.4-0.1-0.5-0.1
		c-0.2-0.1-0.5-0.1-0.7,0c-0.1,0-0.7,0.2-0.8,0.3c-0.4,0.2-0.6,0.5-0.8,1c-0.2,0.2-0.2,0.6,0.1,0.8c0.6,0.3,1.3,0.7,2,0.5
		c0.2,0,0.5-0.1,0.6-0.3c0.2-0.2,0.3-0.4,0.3-0.7c0.1-0.2,0.1-0.2,0.1-0.4C91.7,115.1,91.8,114.8,91.8,114.7z"/>
	<path id="XMLID_122_" class="st6" d="M99.1,107.9C99.1,107.9,99.1,107.8,99.1,107.9c-0.1-0.3-0.2-0.4-0.4-0.5c0,0-0.2-0.1-0.3-0.1
		c-0.1,0-0.3,0-0.4,0s-0.4,0.1-0.5,0.2c-0.2,0.1-0.4,0.3-0.5,0.6c-0.1,0.2-0.1,0.4,0,0.5c0.4,0.2,0.8,0.4,1.2,0.3
		c0.1,0,0.3-0.1,0.4-0.2s0.2-0.2,0.2-0.4c0.1-0.1,0.1-0.1,0.1-0.2C99,108.2,99.1,108,99.1,107.9z"/>
	<path id="XMLID_121_" class="st6" d="M112.7,101.7C112.7,101.7,112.7,101.6,112.7,101.7c-0.1-0.2-0.1-0.3-0.2-0.3
		c0,0-0.2,0-0.2-0.1c-0.1,0-0.2,0-0.3,0c-0.1,0-0.3,0.1-0.3,0.1c-0.2,0.1-0.3,0.2-0.4,0.4c-0.1,0.1-0.1,0.3,0,0.3
		c0.3,0.1,0.6,0.3,0.9,0.2c0.1,0,0.2,0,0.3-0.1c0.1-0.1,0.1-0.2,0.1-0.3C112.6,101.8,112.6,101.8,112.7,101.7
		C112.7,101.9,112.8,101.7,112.7,101.7z"/>
	<path id="XMLID_120_" class="st6" d="M134.3,107.2C134.2,107.2,134.2,107.1,134.3,107.2c-0.1-0.2-0.1-0.3-0.2-0.3
		c0,0-0.2,0-0.2-0.1c-0.1,0-0.2,0-0.3,0s-0.3,0.1-0.3,0.1c-0.2,0.1-0.3,0.2-0.4,0.4c-0.1,0.1-0.1,0.3,0,0.3c0.3,0.1,0.6,0.3,0.9,0.2
		c0.1,0,0.2,0,0.3-0.1c0.1-0.1,0.1-0.2,0.1-0.3C134.2,107.3,134.2,107.3,134.3,107.2C134.2,107.4,134.3,107.2,134.3,107.2z"/>
	<path id="XMLID_119_" class="st6" d="M164.7,108.8C164.6,108.8,164.6,108.7,164.7,108.8c-0.1-0.2-0.1-0.3-0.2-0.3
		c0,0-0.2,0-0.2-0.1c-0.1,0-0.2,0-0.3,0s-0.3,0.1-0.3,0.1c-0.2,0.1-0.3,0.2-0.4,0.4c-0.1,0.1-0.1,0.3,0,0.3c0.3,0.1,0.6,0.3,0.9,0.2
		c0.1,0,0.2,0,0.3-0.1s0.1-0.2,0.1-0.3C164.6,108.9,164.6,108.9,164.7,108.8C164.6,109,164.7,108.8,164.7,108.8z"/>
	<path id="XMLID_118_" class="st6" d="M205,112.9c0,0-4.2,4.2-5.6,3.5c0,0,7.4,4,15.4-2.8L205,112.9z"/>
	<g id="XMLID_115_">
		<path id="XMLID_117_" class="st6" d="M204.5,109.1c0,0-1.1,0.6-2.8,1.6c-0.8,0.5-1.8,1.1-2.8,1.7c-1,0.7-2.1,1.4-2.9,2.3
			c-0.4,0.4-0.9,0.9-0.9,1.3c0,0.1,0,0.2,0,0.2c0,0.1,0.1,0.2,0.1,0.2c0.1,0.1,0.3,0.2,0.5,0.3c0.4,0.1,1,0,1.5-0.1
			c0.2-0.1,0.5-0.1,0.7-0.2s0.5-0.2,0.7-0.3c0.9-0.4,1.6-0.7,2.1-1s0.8-0.4,0.8-0.4l0.1,0.1c0,0-0.2,0.2-0.7,0.6
			c-0.2,0.2-0.5,0.4-0.8,0.6s-0.7,0.5-1.1,0.8c-0.4,0.3-0.9,0.5-1.5,0.7c-0.5,0.2-1.2,0.4-2,0.2c-0.8-0.1-1.6-0.9-1.4-1.9
			c0.3-0.8,0.8-1.3,1.3-1.7c1-0.9,2.1-1.6,3.2-2.2c1.1-0.6,2.1-1.1,2.9-1.5C203.3,109.5,204.5,109,204.5,109.1L204.5,109.1z"/>
	</g>
	<g id="XMLID_112_">
		<path id="XMLID_308_" class="st6" d="M180.5,101.4c-1.5,1.8-2.7,3.9-3.7,6s-1.7,4.3-1.8,6.6c-0.1,1.1,0,2.2,0.3,3.3
			c0.3,1,0.8,2,1.4,2.9c0.6,0.9,1.4,1.7,2.2,2.4c0.8,0.7,1.7,1.4,2.7,2.1l0.2,0.2l0.1,0.1c0,0.1,0.2,0.3,0.2,0.4
			c0.1,0.1,0.2,0.3,0.3,0.4c0.2,0.3,0.5,0.5,0.7,0.7c0.1,0.1,0.3,0.2,0.4,0.3c0.2,0.1,0.3,0.2,0.5,0.2c0.2,0.1,0.3,0.1,0.5,0.1
			s0.4,0,0.6,0.1v0.2c-0.2,0.1-0.4,0.2-0.6,0.2c-0.2,0-0.4,0.1-0.7,0.1c-0.2,0-0.4,0-0.7-0.1c-0.2,0-0.4-0.1-0.6-0.2
			c-0.4-0.2-0.8-0.4-1.2-0.7c-0.2-0.1-0.3-0.3-0.5-0.4c-0.2-0.2-0.3-0.3-0.5-0.5l0.3,0.3c-0.6-0.3-1.1-0.5-1.6-0.9
			c-0.5-0.3-1.1-0.7-1.6-1.1c-1-0.8-1.9-1.7-2.5-2.9c-1.4-2.2-1.8-4.9-1.5-7.4s1.2-4.8,2.5-6.9c1.2-2.1,2.7-4,4.4-5.7L180.5,101.4z"
			/>
	</g>
	<g id="XMLID_109_">
		<path id="XMLID_111_" class="st6" d="M183,106.7c-0.2,0.6-0.4,1.2-0.5,1.8c-0.1,0.6-0.3,1.3-0.3,1.9c-0.1,0.6-0.1,1.3-0.1,1.9
			c0,0.3,0,0.6,0,0.9l0.1,0.9l0.2,0.9c0,0.3,0.2,0.6,0.2,0.9c0.1,0.3,0.2,0.6,0.3,0.9s0.2,0.6,0.4,0.8l0.5,0.8
			c0.2,0.2,0.4,0.5,0.6,0.7l0.3,0.3l0.3,0.3l0.7,0.6l-0.2-0.1c0.9,0.3,1.8,0.6,2.7,0.8c0.4,0.1,0.9,0.2,1.3,0.2c0.2,0,0.4,0,0.6,0
			c0.1,0,0.1,0,0.2,0c0.1,0,0,0,0,0l-0.4,0.7v-1v-1c0-0.6-0.1-1.3-0.2-1.9c0-0.3-0.1-0.6-0.2-0.9c-0.1-0.3-0.2-0.6-0.3-0.8
			c-0.1-0.1-0.1-0.3-0.2-0.4c-0.1-0.1-0.1-0.2-0.2-0.3c-0.1-0.1-0.2-0.2-0.2-0.3c-0.1-0.1-0.2-0.2-0.3-0.2l-0.4-0.3v-0.2
			c-0.1-0.5-0.1-0.9-0.1-1.4s0-0.9,0-1.4c0.1-0.9,0.3-1.9,0.7-2.7l0.2,0.1c-0.1,0.9,0,1.7,0.1,2.6c0.1,0.4,0.2,0.8,0.2,1.3
			c0.1,0.4,0.2,0.8,0.3,1.2l-0.4-0.5l0.6,0.3c0.2,0.1,0.3,0.3,0.5,0.4s0.3,0.3,0.4,0.5c0.1,0.2,0.2,0.3,0.3,0.5
			c0.2,0.4,0.4,0.7,0.5,1.1s0.2,0.7,0.3,1.1c0.2,0.7,0.3,1.5,0.3,2.2c0,0.4,0,0.7,0,1.1s0,0.7-0.1,1.1l-0.1,0.6l-0.4,0.2
			c-0.2,0.1-0.5,0.2-0.6,0.2c-0.2,0-0.4,0.1-0.5,0.1c-0.3,0-0.6,0-0.9-0.1c-0.5-0.1-1-0.2-1.5-0.3c-1-0.3-1.9-0.6-2.8-1l-0.1-0.1
			l-0.1-0.1l-0.7-0.7l-0.4-0.5l-0.3-0.4c-0.2-0.3-0.4-0.5-0.6-0.8l-0.5-0.9c-0.2-0.3-0.2-0.6-0.4-1c-0.1-0.3-0.2-0.6-0.3-1
			c-0.1-0.3-0.2-0.7-0.2-1l-0.1-1v-1c0-0.3,0-0.7,0.1-1c0.1-0.7,0.2-1.3,0.3-1.9c0.3-1.3,0.7-2.5,1.2-3.7L183,106.7z"/>
	</g>
	<path id="XMLID_108_" class="st14" d="M27.7,113.2"/>
	<path id="XMLID_107_" class="st14" d="M23.7,121"/>
	<g id="XMLID_104_">
		<path id="XMLID_178_" class="st6" d="M200.2,109.2c0,0-0.4,0.3-1.1,0.6c-0.4,0.1-0.8,0.2-1.2,0.3c-0.5,0-1-0.1-1.5-0.2
			c-0.2,0-0.5-0.1-0.7-0.2s-0.5-0.2-0.7-0.3c-0.2-0.1-0.4-0.3-0.6-0.4c-0.2-0.2-0.3-0.3-0.4-0.5c-0.1-0.2-0.2-0.3-0.3-0.4
			s-0.1-0.3-0.1-0.4c-0.1-0.2-0.1-0.3-0.1-0.3h0.1c0,0,0.1,0.1,0.2,0.3c0.1,0.1,0.1,0.2,0.2,0.3c0.1,0.1,0.2,0.2,0.3,0.3
			c0.1,0.1,0.3,0.2,0.4,0.3c0.2,0.1,0.3,0.2,0.5,0.2c0.2,0.1,0.4,0.1,0.6,0.2c0.2,0,0.4,0.1,0.7,0.1c0.4,0,0.9,0,1.3-0.1
			c0.4,0,0.8,0,1.2,0C199.6,109,200.2,109.1,200.2,109.2L200.2,109.2z"/>
	</g>
	<g id="XMLID_13_">
		<path id="XMLID_33_" class="st6" d="M130.4,127.4c-0.2,1.7-0.6,3.4-1.1,5.1c-0.2,0.8-0.5,1.7-0.8,2.5s-0.6,1.7-1,2.5
			c-0.7,1.6-1.5,3.2-2.7,4.7c-0.3,0.4-0.6,0.7-0.9,1.1c-0.3,0.3-0.7,0.7-1,1c-0.4,0.3-0.8,0.6-1.2,0.8l-0.7,0.3l-0.7,0.3l-0.5,0.2
			l-0.4-0.5c-0.3-0.3-0.5-0.6-0.8-0.8c-0.2-0.3-0.5-0.6-0.7-0.8c-0.4-0.6-0.8-1.2-1.2-1.8c-0.8-1.2-1.4-2.5-2-3.8
			c-0.3-0.6-0.5-1.3-0.8-2c-0.2-0.7-0.4-1.3-0.6-2c-0.3-1.4-0.6-2.8-0.7-4.2v-0.1v-0.1c0-0.2,0.1-0.4,0.1-0.5
			c0.1-0.2,0.1-0.3,0.2-0.5c0.1-0.3,0.3-0.6,0.6-0.9c0.2-0.3,0.5-0.5,0.9-0.7c0.3-0.2,0.7-0.2,1.1-0.3h0.1h0.1
			c0.7,0.3,1.5,0.5,2.2,0.6c0.4,0.1,0.8,0.1,1.2,0.1c0.4,0,0.8-0.1,1.1-0.3c-0.6,0.5-1.5,0.7-2.3,0.7s-1.6-0.1-2.5-0.3h0.2
			c-0.5,0.1-0.9,0.4-1.2,0.8c-0.1,0.2-0.2,0.4-0.3,0.7c0,0.1-0.1,0.3-0.1,0.4c0,0.1-0.1,0.3-0.1,0.4v-0.2c0.3,1.3,0.6,2.6,1,3.9
			c0.2,0.6,0.4,1.3,0.7,1.9c0.3,0.6,0.5,1.2,0.8,1.8c0.6,1.2,1.2,2.4,1.9,3.5c0.4,0.6,0.7,1.1,1.1,1.6c0.2,0.3,0.4,0.5,0.6,0.8
			c0.2,0.2,0.4,0.5,0.6,0.7l-1-0.2l0.5-0.2l0.5-0.2c0.3-0.2,0.6-0.4,0.9-0.6c0.3-0.3,0.6-0.5,0.9-0.8s0.6-0.6,0.8-0.9
			c0.5-0.6,1-1.3,1.5-2s0.9-1.4,1.3-2.2C127.8,133.9,129.2,130.7,130.4,127.4z"/>
	</g>
	<path id="XMLID_102_" class="st15" d="M117.8,132.6"/>
	<g id="XMLID_99_">
		<path id="XMLID_101_" class="st6" d="M117.8,142.1c0,0,0.5-0.4,1.2-1.1c0.7-0.7,1.7-1.6,2.6-2.6s1.7-2,2.2-2.9
			c0.1-0.2,0.2-0.4,0.3-0.6c0.1-0.2,0.2-0.3,0.2-0.5c0.1-0.3,0.2-0.4,0.2-0.4s0,0.2-0.1,0.4c0,0.1-0.1,0.3-0.2,0.5s-0.1,0.4-0.3,0.6
			c-0.4,0.9-1.1,2.1-2,3.1c-1.6,2.2-3.5,4.1-3.5,4.1c-0.2,0.2-0.5,0.2-0.7,0S117.6,142.4,117.8,142.1
			C117.8,142.2,117.8,142.1,117.8,142.1z"/>
	</g>
	<g id="XMLID_96_">
		<path id="XMLID_98_" class="st6" d="M115.1,135.9c0,0,0.1,0,0.3,0.1c0.2,0,0.5,0.1,0.8,0c0.4,0,0.8-0.1,1.2-0.2
			c0.4-0.1,0.9-0.3,1.3-0.5c0.2-0.1,0.4-0.2,0.6-0.4c0.2-0.1,0.4-0.3,0.6-0.4c0.4-0.3,0.7-0.6,1-0.9c0.3-0.3,0.5-0.5,0.6-0.7
			s0.2-0.3,0.2-0.3s-0.1,0.1-0.2,0.3s-0.3,0.5-0.5,0.8s-0.5,0.7-0.9,1c-0.2,0.2-0.4,0.3-0.6,0.5s-0.4,0.3-0.6,0.5
			c-0.4,0.3-0.9,0.6-1.4,0.8s-0.9,0.3-1.3,0.4c-0.4,0.1-0.8,0.1-1,0.1s-0.4,0-0.4,0L115.1,135.9z"/>
	</g>
	<g id="XMLID_10_">
		<path id="XMLID_35_" class="st6" d="M90.6,124c-0.5,1.1-1.1,2.1-1.8,3.1c-0.7,1-1.4,1.9-2.2,2.9c-0.4,0.5-0.8,0.9-1.2,1.3
			c-0.4,0.4-0.8,0.9-1.3,1.3c-0.4,0.4-0.9,0.8-1.4,1.2c-0.5,0.4-1,0.7-1.5,1.1l0.2-0.1c-0.6,0.7-1.2,1.3-1.9,1.8
			c-0.4,0.3-0.7,0.6-1.2,0.8c-0.2,0.1-0.5,0.2-0.7,0.3c-0.3,0.1-0.6,0.2-1.2,0.1c0.1,0-0.4-0.2-0.5-0.2c-0.1-0.1-0.2-0.2-0.3-0.4
			c-0.1-0.2-0.2-0.4-0.2-0.6c-0.1-0.3-0.1-0.6-0.1-0.8c0-0.5,0-0.9,0.1-1.3c0.1-0.8,0.2-1.7,0.2-2.5v0.4c-0.1-0.5-0.3-1-0.5-1.5
			s-0.4-1-0.7-1.5c-0.5-1-1-1.9-1.6-2.8c-0.3-0.4-0.6-0.9-0.9-1.3s-0.7-0.8-1-1.2l-0.3-0.3c-0.1-0.1-0.2-0.2-0.3-0.4
			c-0.2-0.3-0.4-0.6-0.5-1s-0.1-1,0.2-1.3c0.3-0.3,0.6-0.5,0.9-0.6h0.4c-0.1,0-0.1,0-0.1,0l0,0h0.1h0.1h0.3l0.6-0.1l1.3-0.1l2.5-0.3
			c-0.8,0.3-1.6,0.6-2.4,0.8c-0.4,0.1-0.8,0.2-1.2,0.4l-0.6,0.2l-0.3,0h-0.2h-0.1h-0.1c0,0,0,0-0.2,0h0.4c-0.2,0.1-0.4,0.3-0.4,0.4
			s0,0.2,0,0.3c0.1,0.1,0.2,0.3,0.3,0.4s0.2,0.1,0.2,0.2l0.3,0.3c0.4,0.4,0.9,0.8,1.3,1.2c0.4,0.4,0.8,0.9,1.1,1.3
			c0.7,0.9,1.3,1.9,1.9,2.9c0.3,0.5,0.5,1,0.7,1.6l0.3,0.8c0.1,0.3,0.2,0.5,0.3,0.8l0.1,0.2v0.2c-0.1,0.9-0.1,1.7-0.2,2.5
			c0,0.4-0.1,0.8-0.1,1.2c0,0.2,0,0.3,0,0.4c0,0,0,0.1,0,0l-0.1-0.1c0,0-0.1,0-0.1-0.1h-0.1l0,0c-0.2,0-0.1,0,0,0s0.3-0.1,0.4-0.2
			c0.3-0.2,0.6-0.4,0.9-0.6c0.6-0.5,1.2-1,1.8-1.6l0.1-0.1l0.1-0.1c0.5-0.3,1-0.6,1.4-1c0.5-0.3,0.9-0.7,1.4-1
			c0.9-0.7,1.8-1.5,2.6-2.3C87.4,127.5,89,125.8,90.6,124z"/>
	</g>
	<g id="XMLID_90_">
		<polygon id="XMLID_151_" class="st6" points="72,123.5 76.1,123.1 72.7,125.4 		"/>
	</g>
	<path id="XMLID_89_" class="st16" d="M75.3,128.4"/>
	<g id="XMLID_82_">
		<polygon id="XMLID_95_" class="st6" points="74.9,127.5 81.6,125.3 75.7,129.3 		"/>
	</g>
	<path id="XMLID_79_" class="st16" d="M76.1,132"/>
	<g id="XMLID_76_">
		<polygon id="XMLID_92_" class="st6" points="75.8,131.1 84.6,126.8 76.9,132.8 		"/>
	</g>
	<g id="XMLID_73_">
		<path id="XMLID_162_" class="st6" d="M58.3,117.9c0,0,1.2-0.6,3-1.3c1.8-0.7,4.3-1.6,6.8-2.2c0.6-0.2,1.3-0.3,1.9-0.4
			c0.6-0.1,1.3-0.2,1.9-0.3c0.6-0.1,1.2-0.2,1.7-0.2c0.6,0,1.1-0.1,1.6-0.1s0.9,0,1.3,0s0.7,0.1,1,0.1c0.6,0.1,0.9,0.1,0.9,0.1
			s-0.3,0-0.9,0c-0.3,0-0.6,0-1,0s-0.8,0-1.3,0.1s-1,0.2-1.5,0.2c-0.5,0.1-1.1,0.2-1.7,0.4c-0.6,0.2-1.2,0.3-1.8,0.5
			s-1.2,0.4-1.8,0.6c-2.4,0.9-4.7,1.9-6.4,2.8s-2.8,1.5-2.8,1.5L58.3,117.9z"/>
	</g>
	<g id="XMLID_69_">
		<path id="XMLID_72_" class="st6" d="M80.5,117.6c0,0,4.7,0.8,11.8,2.1c3.5,0.6,7.7,1.3,12.1,2s9.1,1.4,13.9,2.1
			c4.7,0.7,9.5,1.3,13.9,1.7c2.2,0.2,4.4,0.4,6.4,0.6c2,0.1,4,0.2,5.8,0.3c1.8,0,3.4,0,4.9,0s2.7-0.2,3.7-0.3c1-0.2,1.8-0.3,2.4-0.5
			c0.5-0.1,0.8-0.2,0.8-0.2s-0.3,0.1-0.8,0.3c-0.5,0.2-1.3,0.4-2.4,0.6c-1,0.2-2.3,0.4-3.8,0.5s-3.1,0.2-4.9,0.2
			c-1.8,0-3.7,0-5.8-0.1s-4.2-0.2-6.5-0.4c-4.5-0.4-9.2-1-14-1.6c-4.7-0.7-9.5-1.5-13.9-2.2c-4.4-0.8-8.5-1.6-12-2.3
			c-3.5-0.7-6.4-1.4-8.5-1.8C81.7,117.9,80.5,117.6,80.5,117.6z"/>
	</g>
	<g id="XMLID_6_">
		<path id="XMLID_84_" class="st6" d="M158,130.1c0,0,0.8-0.5,2-1.2c1.2-0.6,2.9-1.4,4.7-1.9c0.4-0.1,0.9-0.2,1.3-0.4
			c0.4-0.1,0.9-0.2,1.3-0.2c0.4,0,0.8-0.1,1.2-0.1s0.8,0,1.1,0s0.7,0.1,0.9,0.1c0.3,0,0.5,0.1,0.7,0.1c0.4,0.1,0.6,0.1,0.6,0.1
			s-0.2,0-0.6-0.1c-0.2,0-0.4-0.1-0.7-0.1s-0.6,0-0.9,0c-0.3,0-0.7,0.1-1.1,0.1c-0.4,0.1-0.8,0.2-1.2,0.2c-0.4,0.1-0.8,0.2-1.2,0.4
			c-0.4,0.2-0.8,0.3-1.2,0.5c-1.6,0.7-3.2,1.6-4.3,2.3s-1.8,1.3-1.8,1.3c-0.3,0.3-0.8,0.2-1.1-0.1
			C157.6,130.9,157.6,130.4,158,130.1C158,130.2,158,130.1,158,130.1L158,130.1z"/>
	</g>
	<g id="XMLID_3_">
		<path id="XMLID_78_" class="st6" d="M155.7,134.9c0,0,2.7-1.3,5.5-2.5c1.4-0.6,2.8-1.1,3.9-1.4c0.3-0.1,0.5-0.1,0.7-0.2
			c0.2-0.1,0.4-0.1,0.6-0.1c0.2,0,0.3,0,0.4,0c0.1,0,0.1,0,0.1,0s0,0-0.1,0s-0.2,0-0.4,0s-0.3,0.1-0.6,0.2c-0.2,0.1-0.4,0.2-0.7,0.3
			c-1,0.4-2.3,1.2-3.6,1.9c-2.6,1.5-5.1,3.1-5.1,3.1c-0.3,0.2-0.8,0.1-1-0.2C155.2,135.6,155.3,135.2,155.7,134.9L155.7,134.9z"/>
	</g>
	<path id="XMLID_2_" class="st6" d="M55.7,116c0-0.1-0.1-0.1-0.1-0.2c0-0.3-0.2-0.5-0.4-0.6c0,0-0.4-0.1-0.5-0.1
		c-0.2-0.1-0.5-0.1-0.7,0c-0.1,0-0.7,0.2-0.8,0.3c-0.4,0.2-0.6,0.5-0.8,1c-0.2,0.2-0.2,0.6,0.1,0.8c0.6,0.3,1.3,0.7,2,0.5
		c0.2,0,0.5-0.1,0.6-0.3c0.2-0.2,0.3-0.4,0.3-0.7c0.1-0.2,0.1-0.2,0.1-0.4C55.6,116.4,55.8,116.1,55.7,116z"/>
	<g id="XMLID_303_">
		<path id="XMLID_310_" class="st6" d="M193.6,99.1c0,0,0,0.6-0.1,1.2c-0.1,0.3-0.2,0.6-0.4,0.9s-0.6,0.4-0.8,0.7
			c-0.5,0.5-0.9,1.1-1.1,1.6c-0.1,0.2-0.2,0.5-0.2,0.6c0,0.2,0,0.3,0,0.3h-0.2c0,0,0-0.1-0.1-0.3c0-0.1-0.1-0.2-0.1-0.3
			c0-0.1-0.1-0.3-0.1-0.4c0-0.3,0-0.7,0.1-1.1s0.2-0.8,0.4-1.2c0.2-0.4,0.3-0.8,0.5-1.2c0.2-0.3,0.6-0.5,0.9-0.7
			C193,98.9,193.6,99,193.6,99.1L193.6,99.1z"/>
	</g>
	<path id="XMLID_113_" class="st6" d="M187.2,101.5c0,0,0-0.1-0.1-0.1c0-0.2-0.1-0.3-0.3-0.4c0,0-0.2-0.1-0.3-0.1s-0.3,0-0.4,0
		c-0.1,0-0.4,0.1-0.5,0.2c-0.2,0.1-0.4,0.3-0.5,0.6c-0.1,0.2-0.1,0.4,0,0.5c0.4,0.2,0.8,0.4,1.2,0.3c0.1,0,0.3-0.1,0.4-0.2
		c0.1-0.1,0.2-0.2,0.2-0.4c0.1-0.1,0.1-0.1,0.1-0.2C187.2,101.7,187.3,101.5,187.2,101.5z"/>
	<g id="XMLID_160_">
		<path id="XMLID_318_" class="st6" d="M70.5,100.4c0,0-1.4,0.8-3.7,1.6c-1.1,0.4-2.5,0.8-3.9,1.2c-0.7,0.1-1.5,0.3-2.3,0.4
			s-1.6,0.2-2.4,0.3c-1.6,0.2-3.2,0.4-4.7,0.5c-0.7,0-1.4,0-2.1,0s-1.3,0-1.9-0.1c-0.6,0-1.2-0.1-1.6-0.2c-0.5-0.1-0.9-0.1-1.2-0.2
			c-0.7-0.2-1.1-0.3-1.1-0.3v-0.1c0,0,0.4,0.1,1.1,0.1c0.3,0.1,0.8,0.1,1.2,0.1c0.5,0,1,0.1,1.6,0c0.6,0,1.2,0,1.9-0.1
			s1.4-0.1,2.1-0.2c1.5-0.2,3-0.5,4.6-0.8c1.5-0.3,3.1-0.7,4.5-1.1c1.4-0.3,2.8-0.6,4-0.8c2.3-0.4,4-0.6,4-0.6L70.5,100.4z"/>
	</g>
	<path id="XMLID_4_" class="st6" d="M63.8,107.2C63.8,107.2,63.8,107.1,63.8,107.2c-0.1-0.3-0.2-0.4-0.4-0.5c0,0-0.2-0.1-0.3-0.1
		s-0.3,0-0.4,0c-0.1,0-0.4,0.1-0.5,0.2c-0.3,0.1-0.4,0.3-0.5,0.6c-0.1,0.2-0.1,0.4,0,0.5c0.4,0.2,0.8,0.4,1.2,0.3
		c0.1,0,0.3-0.1,0.4-0.2c0.1-0.1,0.2-0.2,0.2-0.4c0.1-0.1,0.1-0.1,0.1-0.2C63.8,107.4,63.8,107.3,63.8,107.2z"/>
</g>
</svg>
